<?xml version="1.0" encoding="utf-8"?>
<!-- Generator: Adobe Illustrator 25.4.1, SVG Export Plug-In . SVG Version: 6.00 Build 0)  -->
<svg version="1.1" id="Layer_1" xmlns="http://www.w3.org/2000/svg" xmlns:xlink="http://www.w3.org/1999/xlink" x="0px" y="0px"
	 viewBox="0 0 64 80" style="enable-background:new 0 0 64 80;" xml:space="preserve">
<g>
	<path d="M35,53h-6c-1.1,0-2,0.9-2,2v2c0,1.1,0.9,2,2,2h6c1.1,0,2-0.9,2-2v-2C37,53.9,36.1,53,35,53z M29,57v-2h6v2H29z"/>
	<path d="M45,53h-2c-1.1,0-2,0.9-2,2v2c0,1.1,0.9,2,2,2h2c1.1,0,2-0.9,2-2v-2C47,53.9,46.1,53,45,53z M43,57v-2h2v2H43z"/>
	<path d="M21,53h-2c-1.1,0-2,0.9-2,2v2c0,1.1,0.9,2,2,2h2c1.1,0,2-0.9,2-2v-2C23,53.9,22.1,53,21,53z M19,57v-2h2v2H19z"/>
	<circle cx="28" cy="6" r="1"/>
	<circle cx="32" cy="6" r="1"/>
	<circle cx="36" cy="6" r="1"/>
	<path d="M28,37c-1.6,0-3.1,0.8-4,2h-4c-1.7,0-3,1.3-3,3s1.3,3,3,3h4c0.9,1.2,2.3,2,4,2s3.1-0.8,4-2h12c1.7,0,3-1.3,3-3s-1.3-3-3-3
		H32C31.1,37.8,29.6,37,28,37z M20,43c-0.6,0-1-0.4-1-1s0.4-1,1-1h3.1C23,41.3,23,41.7,23,42s0,0.7,0.1,1H20z M28,45
		c-1.7,0-3-1.3-3-3s1.3-3,3-3s3,1.3,3,3S29.7,45,28,45z M44,41c0.6,0,1,0.4,1,1s-0.4,1-1,1H32.9c0.1-0.3,0.1-0.7,0.1-1s0-0.7-0.1-1
		H44z"/>
	<path d="M60,13h-9V6c0-2.8-2.2-5-5-5H36h-8H18c-2.8,0-5,2.2-5,5v13.2C11.4,19.7,9.7,20,7.9,20H4c-1.7,0-3,1.3-3,3v4
		c0,1.7,1.3,3,3,3h0.2l2,8H11v-7.7c0.7,0.1,1.3,0.3,2,0.5V58c0,2.8,2.2,5,5,5h28c2.8,0,5-2.2,5-5V33h9c1.7,0,3-1.3,3-3V16
		C63,14.3,61.7,13,60,13z M49,6v3h-9c0.6-0.8,1-1.9,1-3s-0.4-2.2-1-3h6C47.7,3,49,4.3,49,6z M36,3c1.7,0,3,1.3,3,3s-1.3,3-3,3h-8
		c-1.7,0-3-1.3-3-3s1.3-3,3-3H36z M18,3h6c-0.6,0.8-1,1.9-1,3s0.4,2.2,1,3h-9V6C15,4.3,16.3,3,18,3z M19,31.8
		c-2.9-2.2-6.3-3.5-10-3.8v-6.1c3.7-0.2,7.1-1.5,10-3.8V31.8z M3,27v-1h2v-2H3v-1c0-0.6,0.4-1,1-1h3v6H4C3.4,28,3,27.6,3,27z M9,36
		H7.8l-1.5-6h1.6c0.4,0,0.7,0,1.1,0.1V36L9,36z M46,61H18c-1.7,0-3-1.3-3-3v-7h34v7C49,59.7,47.7,61,46,61z M49,49H15V31.6
		c1.5,0.7,2.8,1.7,4,2.8c0.2,1.4,1.5,2.5,3,2.5c1.7,0,3-1.3,3-3v-4.1c2.3-0.5,4-2.5,4-4.9s-1.7-4.4-4-4.9v-4c0-1.7-1.3-3-3-3
		c-1.5,0-2.7,1.1-3,2.5c-1.2,1.2-2.6,2.1-4,2.8V11h13h8h13v2H38c-1.7,0-3,1.3-3,3v18.6c0,1.3,1.1,2.4,2.4,2.4c0.6,0,1.3-0.3,1.7-0.7
		l3.3-3.3H49V49z M21,34V16c0-0.6,0.4-1,1-1s1,0.4,1,1v18c0,0.6-0.4,1-1,1S21,34.6,21,34z M25,22.2c1.2,0.4,2,1.5,2,2.8
		s-0.8,2.4-2,2.8V22.2z M61,30c0,0.6-0.4,1-1,1H41.6l-3.9,3.9c-0.2,0.2-0.7,0-0.7-0.3V16c0-0.6,0.4-1,1-1h22c0.6,0,1,0.4,1,1
		C61,16,61,30,61,30z"/>
	<path d="M53.6,20.7l-6.8-3.4C46.4,17.1,46,17,45.6,17c-1.4,0-2.6,1.2-2.6,2.6v6.8c0,1.4,1.2,2.6,2.6,2.6c0.4,0,0.8-0.1,1.2-0.3
		l6.8-3.4C54.4,24.9,55,24,55,23S54.4,21.1,53.6,20.7z M52.7,23.6L45.9,27c-0.4,0.2-0.9-0.1-0.9-0.6v-6.8c0-0.3,0.3-0.6,0.6-0.6
		c0.1,0,0.2,0,0.3,0.1l6.8,3.4c0.2,0.1,0.3,0.3,0.3,0.6S52.9,23.4,52.7,23.6z"/>
	<rect x="39" y="17" width="2" height="2"/>
	<rect x="39" y="28" width="2" height="2"/>
	<rect x="57" y="27" width="2" height="2"/>
	<rect x="57" y="17" width="2" height="2"/>
</g>
</svg>
